<?xml version="1.0" encoding="UTF-8"?>
<svg xmlns="http://www.w3.org/2000/svg" width="142.5758825641151" height="142.56387917713982" viewBox="391.0 392.0 142.5758825641151 142.56387917713982" preserveAspectRatio="none">
  <g>
    <defs>
      <clipPath id="s-Path_23-d1224_clipping">
        <path d="M391.0 463.48528067784173 L463.23504651598887 392.0 L533.5758825641151 463.0785984992981 L461.3408360481262 534.5638791771398 Z " fill="black"></path>
      </clipPath>
      <path id="s-Path_19-d1224" d="M495.5029983520508 448.64677970127923 C493.74500274658203 450.38688056187493 491.41600036621094 451.3571793289648 488.9237976074219 451.3441788406835 L434.0525016784668 451.05798117833 C431.58440017700195 451.069081947373 429.2652015686035 450.07447974400384 427.5013999938965 448.2920815201269 C425.7612991333008 446.5337807388769 424.79100036621094 444.2044808121191 424.8040008544922 441.7124802322851 L424.86940002441406 433.7813812942968 C424.8582992553711 431.31327979283196 425.85279846191406 428.99418036656243 427.6352005004883 427.2302796097265 C429.3935012817383 425.49028174595696 431.7228012084961 424.51997916416985 434.2148017883301 424.5329796524511 L474.7573013305664 424.7443825455175 C475.4281997680664 424.7478806229101 476.0002975463867 425.32597892002923 475.9968032836914 425.9968811722265 C475.99330139160156 426.6677796097265 475.41519927978516 427.2398812027441 474.74430084228516 427.23637931065423 L434.2018013000488 427.0248810501562 C432.38079833984375 427.0153824539648 430.69969940185547 427.72548072056634 429.3991012573242 429.0126816483007 C428.0984001159668 430.2997795792089 427.3946990966797 431.9974800796972 427.36130142211914 433.79438178257806 L427.3198013305664 441.74958197789056 C427.31029891967773 443.57058112339837 428.02040100097656 445.25168006138665 429.3075981140137 446.55228202061517 C430.59469985961914 447.8529793472753 432.2924003601074 448.55668036656243 434.089298248291 448.59008185582024 L489.0085983276367 448.87648169712884 C490.82959747314453 448.88598029332024 492.51100158691406 448.1759812088476 493.81099700927734 446.8887802811132 C495.11199951171875 445.60157935337884 495.81600189208984 443.90398184971673 495.8489990234375 442.10698096470696 L495.89099884033203 434.15187995152337 C495.9100036621094 430.413880989121 492.8830032348633 427.3549820633398 489.12110137939453 427.3113800735937 C488.4501037597656 427.3078819962011 487.8780975341797 426.7297798843847 487.88159942626953 426.0588814468847 C487.8851013183594 425.38797919468743 488.46309661865234 424.8158814163671 489.1341018676758 424.8193794937597 C491.6259994506836 424.83237998204095 493.9209976196289 425.80288092808587 495.68499755859375 427.5852791519628 C497.4250030517578 429.3435799332128 498.39600372314453 431.67287985997064 498.3830032348633 434.1648804398046 L498.34100341796875 442.1199814529882 C498.25599670410156 444.58768241124017 497.28600311279297 446.88298194126946 495.5029983520508 448.64677970127923 Z "></path>
      <path id="s-Path_20-d1224" d="M469.0726013183594 526.9122826309667 C468.85579681396484 527.1272789688574 468.5195999145508 527.269277259873 468.18419647216797 527.2672783585058 L454.5741996765137 527.196279212998 C454.2387008666992 527.1942803116308 453.9277992248535 527.0732781143652 453.6894989013672 526.832280799912 C453.45109939575195 526.5912834854589 453.33290100097656 526.279287025498 453.33470153808594 525.9432732315527 L453.5093994140625 492.446279212998 C453.53139877319336 488.2286812515722 456.9998016357422 484.79617850499017 461.21700286865234 484.8181816788183 L461.98380279541016 484.82217948155267 C464.0444030761719 484.8329827042089 465.9331970214844 485.63358084874017 467.3872985839844 487.1027809830175 C468.84130096435547 488.57208029942376 469.6221008300781 490.4691826553808 469.6113967895508 492.53027884678704 L469.49539947509766 514.7662789078222 C469.4918975830078 515.4372841568456 468.91380310058594 516.009282753037 468.2428970336914 516.0052773209081 C467.5719985961914 516.0022789688574 466.9999008178711 515.4242836685644 467.00340270996094 514.753278419541 L467.14320373535156 492.5412804337011 C467.15049743652344 491.15118186192376 466.6300964355469 489.854482337998 465.6528015136719 488.86697928624017 C464.67549896240234 487.87937705235345 463.3843994140625 487.3454796524511 461.9945983886719 487.3382775040136 L461.22779846191406 487.33427970127923 C458.35250091552734 487.3192803116308 456.01609802246094 489.63138358311517 456.0251998901367 492.48328177647454 L455.80909729003906 524.7342735977636 L468.17310333251953 524.7992760391699 C468.84400177001953 524.8022820206152 469.41609954833984 525.3802849503027 469.41259765625 526.051274940537 C469.43489837646484 526.363286659287 469.2893981933594 526.6982781143652 469.0726013183594 526.9122826309667 Z "></path>
      <path id="s-Path_21-d1224" d="M505.56500244140625 458.2361809463964 C503.9520034790039 459.83318106846673 501.9820022583008 460.68558280186517 500.61499786376953 460.9898812027441 L466.7856979370117 469.20017783360345 C466.7615966796875 469.22398154454095 466.7136993408203 469.22378318028314 466.7136993408203 469.22378318028314 C466.5938034057617 469.2470833511816 463.1159973144531 469.87588278965814 463.07689666748047 472.77508322911126 C463.0622024536133 475.6024834366308 463.2471008300781 486.09878318028314 463.24659729003906 486.1946770401464 C463.2668991088867 486.88968436436517 462.71289825439453 487.4378792496191 462.0178985595703 487.45818106846673 C461.3228988647461 487.4785820694433 460.77469635009766 486.9245812149511 460.7543029785156 486.2295815201269 C460.75659942626953 485.7982842178808 460.5460968017578 475.6133782120214 460.56109619140625 472.7379814835058 C460.58190155029297 468.76048056797845 464.2326965332031 467.10217826084954 466.22339630126953 466.75308005528314 L500.0289993286133 458.51878134922845 C500.0289993286133 458.51878134922845 500.0530014038086 458.49497763829095 500.0770034790039 458.51907889561517 C500.31600189208984 458.4723793716894 505.80999755859375 457.1830803604589 505.84100341796875 451.38448111729485 L505.9039993286133 439.30798117833 L497.2300033569336 439.3106819839941 C496.55899810791016 439.30718009190423 495.98699951171875 438.7290817947851 495.98999786376953 438.0581795425878 C495.99400329589844 437.3872811050878 496.5719985961914 436.81517951207024 497.2429962158203 436.8186814041601 L507.16200256347656 436.87048117833 C507.83300018310547 436.8739792557226 508.4049987792969 437.452081367539 508.4020004272461 438.122979805039 L508.3320007324219 451.4453789444433 C508.2929992675781 454.4883820267187 507.1070022583008 456.710683509873 505.56500244140625 458.2361809463964 Z "></path>
      <path id="s-Path_22-d1224" d="M488.16529846191406 435.9805809708105 C487.94850158691406 436.1951805801855 487.61229705810547 436.3371788712011 487.2769012451172 436.335382148789 L456.8460998535156 436.1766792984472 L456.8386001586914 437.6143814774023 C456.831298828125 439.00407950596673 456.2731018066406 440.36697928624017 455.2854995727539 441.3442818375097 C454.27389907836914 442.3454796524511 452.9532012939453 442.8896805496679 451.53960037231445 442.85838095860345 C448.6162986755371 442.843080207871 446.28039932250977 440.4826790543066 446.2956008911133 437.5593811722265 L446.3031005859375 436.1216789932714 L435.7122001647949 436.0664803238378 C435.0413017272949 436.06298224644524 434.46920013427734 435.48488013462884 434.4726982116699 434.81398169712884 C434.47620010375977 434.1430794449316 435.0542984008789 433.57098166661126 435.7252006530762 433.57447974400384 L447.5620994567871 433.6361824722753 C447.89749908447266 433.63797919468743 448.20840072631836 433.75938193516595 448.4468002319336 434.00028006749017 C448.6851005554199 434.2410790176855 448.8032989501953 434.55328147129876 448.8016014099121 434.8886810989843 L448.78760147094727 437.57238166050774 C448.779598236084 439.10588233189446 450.019100189209 440.35838095860345 451.5526008605957 440.36638037876946 C452.3193016052246 440.3703819962011 452.9917984008789 440.0862824173437 453.52170181274414 439.5618797989355 C454.0516014099121 439.03748099522454 454.34280014038086 438.3201805801855 454.3465995788574 437.601380989121 L454.36059951782227 434.9176804275976 C454.3641014099121 434.2467819900976 454.94219970703125 433.67468039708 455.61309814453125 433.67818228916985 L487.28990173339844 433.8434807510839 C487.96080017089844 433.8469788284765 488.53289794921875 434.424981758164 488.52940368652344 435.095880195664 C488.55139923095703 435.45548026280267 488.4061965942383 435.74228064732415 488.16529846191406 435.9805809708105 Z "></path>
    </defs>
    <g clip-path="url(#s-Path_23-d1224_clipping)">
      <g id="s-Group_6-d1224">
        <g style="mix-blend-mode:normal">
          <use xmlns:xlink="http://www.w3.org/1999/xlink" xlink:href="#s-Path_19-d1224" fill="#928D8D" fill-opacity="1.0"></use>
        </g>
        <g style="mix-blend-mode:normal">
          <use xmlns:xlink="http://www.w3.org/1999/xlink" xlink:href="#s-Path_20-d1224" fill="#928D8D" fill-opacity="1.0"></use>
        </g>
        <g style="mix-blend-mode:normal">
          <use xmlns:xlink="http://www.w3.org/1999/xlink" xlink:href="#s-Path_21-d1224" fill="#928D8D" fill-opacity="1.0"></use>
        </g>
        <g style="mix-blend-mode:normal">
          <use xmlns:xlink="http://www.w3.org/1999/xlink" xlink:href="#s-Path_22-d1224" fill="#928D8D" fill-opacity="1.0"></use>
        </g>
      </g>
    </g>
  </g>
</svg>
