<?xml version="1.0" encoding="UTF-8"?>
<svg xmlns="http://www.w3.org/2000/svg" width="114.99840374672704" height="114.99999894153052" viewBox="247.0 135.0 114.99840374672704 114.99999894153052" preserveAspectRatio="none">
  <g>
    <defs>
      <clipPath id="s-Path_7-d1224_clipping">
        <path d="M361.99840374672704 192.80285770675482 L304.49898528123913 249.99999894153052 L247.0 192.1971412347757 L304.4994184654879 135.0 Z " fill="black"></path>
      </clipPath>
      <path id="s-Path_1-d1224" d="M297.57630367958836 149.20015747329535 C297.80900402748875 148.9686578013593 298.13140316689305 148.82725746414008 298.47170086586766 148.84715778610052 L310.4373037406235 148.91765815994086 C311.15379925453954 148.9218581416303 311.7094022818833 149.48035747787299 311.70990582192235 150.1969578959638 C311.710302550438 150.9134572245771 311.1554014273911 151.46545727035345 310.4389020987778 151.461257288664 L298.4733030387192 151.3908570506269 C297.75680371010594 151.38655788680853 297.20120449745946 150.82805759689154 297.2007009574204 150.11155731460394 C297.2005025931626 149.75325805923285 297.343603331688 149.4316580989057 297.57630367958836 149.20015747329535 Z "></path>
      <path id="s-Path_2-d1224" d="M290.7631017752915 225.02065403243842 C290.9958021231919 224.7891553141767 291.3182012625962 224.64775974532904 291.65850277626805 224.66765720626654 L317.34510632241063 224.81885654708685 C318.0616056510239 224.82306034347357 318.61720104897313 225.38165409347357 318.6177045890122 226.09816105148138 L318.60400219643407 232.95865757247748 C318.6065046378403 236.9348614909345 315.34850140297704 240.17585880538763 311.3719007560044 240.15285618087592 L302.66640301430516 240.10186130782904 C301.9499036856919 240.09785587570013 301.3943044730454 239.53885776778998 301.39380093300633 238.82185489913763 C301.3934042044907 238.10585911056342 301.9483015128403 237.55385715743842 302.6648008414536 237.5578549601728 L311.37030621254735 237.6088574626142 C313.94970532143407 237.62485630294623 316.06210156166844 235.52285892745795 316.0784055777817 232.92595798751654 L316.074804503563 227.30125553390326 L292.9140035697251 227.1828549601728 L292.91750164711766 232.80755741378607 C292.91880245888524 234.9568570353681 294.4605009146958 236.90085727950873 296.5387022086411 237.41485721847357 C297.21940441811375 237.59785587570013 297.63180371010594 238.26285679122748 297.48900433266454 238.94285709640326 C297.31030102455907 239.62185795089545 296.647802550438 240.0308545329267 295.9670011588364 239.8828595378095 C292.6885015555649 239.09385807296576 290.3939039298325 236.17785770675482 290.39180203163914 232.81055576583685 L290.3875028678208 225.93206150314154 C290.387304503563 225.57375461837592 290.5304014273911 225.25216038009467 290.7631017752915 225.02065403243842 Z "></path>
      <path id="s-Path_3-d1224" d="M303.60460110390477 135.89066774627508 C303.71200390541844 135.78381968519034 303.81940289223485 135.71279967805685 303.96270199501805 135.64199567815604 C304.5894033499985 135.34116370460333 305.3419019767075 135.6321967341596 305.6468030997544 136.2609377600843 L318.38170452797704 163.6707585551435 C318.47140331948094 163.83255703231634 318.5072996207505 164.01185734054388 318.48950024330907 164.20875675460638 L318.52789898598485 225.82895786544623 C318.5284025260239 226.5454571940595 317.97340222084813 227.0974591471845 317.25690289223485 227.0932553507978 C316.54040356362157 227.0890591838056 315.9848005362778 226.53045780441107 315.9844038077622 225.8139584757978 L315.96400280678563 164.46265728256049 L303.35470410073094 137.32221777221503 C303.12150402748875 136.83719761153998 303.24650402748875 136.24680776378455 303.60460110390477 135.89066774627508 Z "></path>
      <path id="s-Path_4-d1224" d="M300.8139020987778 141.82128793975653 C301.1719038077622 141.46513778945746 301.7629034110337 141.34322769424261 302.24670239174657 141.57893783828558 C302.87390347206883 141.88714773437323 303.16090222084813 142.6411774851972 302.85680218422704 143.26633770248236 L292.94640179360204 164.3450577952558 L292.9844038077622 225.28455478927435 C292.984903533104 226.00105411788763 292.4299032279282 226.55305607101263 291.7134038993149 226.54885990402045 C290.9969007560044 226.54465610763373 290.4413015433579 225.9860547282392 290.4408018180161 225.26955539962592 L290.4206029959946 164.06155712386908 C290.4205038138657 163.88235790511908 290.4562017508774 163.70345814010443 290.5277044364243 163.52475864669623 L300.54540081703954 142.19587785980048 C300.6170026847153 142.05299789687933 300.7065031119614 141.92812759658636 300.8139020987778 141.82128793975653 Z "></path>
      <path id="s-Path_5-d1224" d="M303.5752012320786 174.99405796310248 C303.807901579979 174.76255924484076 304.1302015372544 174.62115604659857 304.47060223305516 174.64105732223334 C305.18710156166844 174.6452573039228 305.7427007743149 175.20385868331732 305.743204314354 175.9203580119306 L305.75630398476414 225.73585636398138 C305.75670452797704 226.45235569259467 305.20180340493016 227.00445682784857 304.4853040763169 227.00016147872748 C303.76880093300633 226.99595768234076 303.21320172035985 226.43735630294623 303.21270199501805 225.72085697433295 L303.2175008841782 175.88755924484076 C303.1994039603501 175.54715854903998 303.3424017020493 175.2255566813642 303.5752012320786 174.99405796310248 Z "></path>
      <path id="s-Path_6-d1224" d="M290.9405042716294 164.76315815231146 C291.1732008048325 164.5316575267011 291.49560375893407 164.3902581431562 291.8359014579087 164.41015751144232 L317.0926038810044 164.55885822555365 C317.80910320961766 164.5630582072431 318.3647062369614 165.121657679289 318.36520214760594 165.83815700790228 C318.36559887612157 166.5546582438642 317.8107053824692 167.10665638229193 317.09420605385594 167.10245640060248 L291.83750363076024 166.95385868331732 C291.12100430214696 166.94955951949896 290.5654012748032 166.39105732223334 290.5649015494614 165.67455799362006 C290.5647031852036 165.31625683090033 290.707803923729 164.99465687057318 290.9405042716294 164.76315815231146 Z "></path>
    </defs>
    <g clip-path="url(#s-Path_7-d1224_clipping)">
      <g id="s-Group_2-d1224">
        <g style="mix-blend-mode:normal">
          <use xmlns:xlink="http://www.w3.org/1999/xlink" xlink:href="#s-Path_1-d1224" fill="#928D8D" fill-opacity="1.0"></use>
        </g>
        <g style="mix-blend-mode:normal">
          <use xmlns:xlink="http://www.w3.org/1999/xlink" xlink:href="#s-Path_2-d1224" fill="#928D8D" fill-opacity="1.0"></use>
        </g>
        <g style="mix-blend-mode:normal">
          <use xmlns:xlink="http://www.w3.org/1999/xlink" xlink:href="#s-Path_3-d1224" fill="#928D8D" fill-opacity="1.0"></use>
        </g>
        <g style="mix-blend-mode:normal">
          <use xmlns:xlink="http://www.w3.org/1999/xlink" xlink:href="#s-Path_4-d1224" fill="#928D8D" fill-opacity="1.0"></use>
        </g>
        <g style="mix-blend-mode:normal">
          <use xmlns:xlink="http://www.w3.org/1999/xlink" xlink:href="#s-Path_5-d1224" fill="#928D8D" fill-opacity="1.0"></use>
        </g>
        <g style="mix-blend-mode:normal">
          <use xmlns:xlink="http://www.w3.org/1999/xlink" xlink:href="#s-Path_6-d1224" fill="#928D8D" fill-opacity="1.0"></use>
        </g>
      </g>
    </g>
  </g>
</svg>
