<?xml version="1.0" encoding="UTF-8"?>
<svg xmlns="http://www.w3.org/2000/svg" width="69.99030303955078" height="100.0" viewBox="132.0 339.0 69.99030303955078 100.0" preserveAspectRatio="none">
  <g>
    <defs>
      <clipPath id="s-Path_18-d1224_clipping">
        <path d="M132.0 339.0 L201.99030303955078 339.0 L201.99030303955078 439.0 L132.0 439.0 Z " fill="black"></path>
      </clipPath>
      <path id="s-Path_8-d1224" d="M156.4272003173828 415.5730972290039 C155.84639930725098 415.5730972290039 155.36240005493164 415.08910369873047 155.36240005493164 414.5082015991211 L155.36240005493164 341.1297199726105 L134.12971997261047 341.1297199726105 L134.12971997261047 414.5082015991211 C134.12971997261047 415.08910369873047 133.64568996429443 415.5730972290039 133.06485998630524 415.5730972290039 C132.48402699828148 415.5730972290039 132.0 415.08910369873047 132.0 414.5082015991211 L132.0 340.06485998630524 C132.0 339.4840269982815 132.48402699828148 339.0 133.06485998630524 339.0 L156.4272003173828 339.0 C157.00810050964355 339.0 157.4920997619629 339.4840269982815 157.4920997619629 340.06485998630524 L157.4920997619629 414.5082015991211 C157.45980072021484 415.08910369873047 157.00810050964355 415.5730972290039 156.4272003173828 415.5730972290039 Z "></path>
      <path id="s-Path_9-d1224" d="M200.92549896240234 439.0 L133.0971200466156 439.0 C132.51628398895264 439.0 132.03225709870458 438.51599884033203 132.03225709870458 437.9352035522461 L132.03225709870458 414.5727996826172 C132.03225709870458 413.9919967651367 132.51628398895264 413.50789642333984 133.0971200466156 413.50789642333984 C133.6779500246048 413.50789642333984 134.16197991371155 413.9919967651367 134.16197991371155 414.5727996826172 L134.16197991371155 436.87030029296875 L200.92549896240234 436.87030029296875 C201.5063018798828 436.87030029296875 201.99030303955078 437.3543014526367 201.99030303955078 437.9352035522461 C201.99030303955078 438.51599884033203 201.5063018798828 439.0 200.92549896240234 439.0 Z "></path>
      <path id="s-Path_10-d1224" d="M200.92549896240234 429.0613021850586 C200.34459686279297 429.0613021850586 199.86060333251953 428.5773010253906 199.86060333251953 427.99649810791016 L199.86060333251953 415.63770294189453 L145.4882001876831 415.63770294189453 C144.9074001312256 415.63770294189453 144.42339992523193 415.15360260009766 144.42339992523193 414.5727996826172 C144.42339992523193 413.9919967651367 144.9074001312256 413.50789642333984 145.4882001876831 413.50789642333984 L200.92549896240234 413.50789642333984 C201.5063018798828 413.50789642333984 201.99030303955078 413.9919967651367 201.99030303955078 414.5727996826172 L201.99030303955078 427.99649810791016 C201.99030303955078 428.5773010253906 201.5063018798828 429.0613021850586 200.92549896240234 429.0613021850586 Z "></path>
      <path id="s-Path_11-d1224" d="M155.84639930725098 408.08679962158203 L141.03516960144043 408.08679962158203 C140.45433044433594 408.08679962158203 139.97031021118164 407.60279846191406 139.97031021118164 407.0220031738281 C139.97031021118164 406.44110107421875 140.45433044433594 405.9570999145508 141.03516960144043 405.9570999145508 L155.87870025634766 405.9570999145508 C156.45949935913086 405.9570999145508 156.94350051879883 406.44110107421875 156.94350051879883 407.0220031738281 C156.94350051879883 407.60279846191406 156.45949935913086 408.08679962158203 155.84639930725098 408.08679962158203 Z "></path>
      <path id="s-Path_12-d1224" d="M155.84639930725098 398.6967010498047 L145.4882001876831 398.6967010498047 C144.9074001312256 398.6967010498047 144.42339992523193 398.2126007080078 144.42339992523193 397.6318016052246 C144.42339992523193 397.05099868774414 144.9074001312256 396.56700134277344 145.4882001876831 396.56700134277344 L155.84639930725098 396.56700134277344 C156.4272003173828 396.56700134277344 156.9113006591797 397.05099868774414 156.9113006591797 397.6318016052246 C156.9113006591797 398.2126007080078 156.45949935913086 398.6967010498047 155.84639930725098 398.6967010498047 Z "></path>
      <path id="s-Path_13-d1224" d="M155.84639930725098 389.3387985229492 L141.03516960144043 389.3387985229492 C140.45433044433594 389.3387985229492 139.97031021118164 388.8548011779785 139.97031021118164 388.27399826049805 C139.97031021118164 387.69309997558594 140.45433044433594 387.20909881591797 141.03516960144043 387.20909881591797 L155.87870025634766 387.20909881591797 C156.45949935913086 387.20909881591797 156.94350051879883 387.69309997558594 156.94350051879883 388.27399826049805 C156.94350051879883 388.8548011779785 156.45949935913086 389.3387985229492 155.84639930725098 389.3387985229492 Z "></path>
      <path id="s-Path_14-d1224" d="M155.84639930725098 379.9486999511719 L145.4882001876831 379.9486999511719 C144.9074001312256 379.9486999511719 144.42339992523193 379.4646987915039 144.42339992523193 378.8838005065918 C144.42339992523193 378.3030014038086 144.9074001312256 377.8190002441406 145.4882001876831 377.8190002441406 L155.84639930725098 377.8190002441406 C156.4272003173828 377.8190002441406 156.9113006591797 378.3030014038086 156.9113006591797 378.8838005065918 C156.9113006591797 379.4646987915039 156.45949935913086 379.9486999511719 155.84639930725098 379.9486999511719 Z "></path>
      <path id="s-Path_15-d1224" d="M155.84639930725098 370.5585994720459 L141.03516960144043 370.5585994720459 C140.45433044433594 370.5585994720459 139.97031021118164 370.074499130249 139.97031021118164 369.4937000274658 C139.97031021118164 368.9129009246826 140.45433044433594 368.42880058288574 141.03516960144043 368.42880058288574 L155.87870025634766 368.42880058288574 C156.45949935913086 368.42880058288574 156.94350051879883 368.9129009246826 156.94350051879883 369.4937000274658 C156.94350051879883 370.074499130249 156.45949935913086 370.5585994720459 155.84639930725098 370.5585994720459 Z "></path>
      <path id="s-Path_16-d1224" d="M155.84639930725098 351.8106002807617 L141.03516960144043 351.8106002807617 C140.45433044433594 351.8106002807617 139.97031021118164 351.32649993896484 139.97031021118164 350.7456998825073 C139.97031021118164 350.1648998260498 140.45433044433594 349.68080043792725 141.03516960144043 349.68080043792725 L155.87870025634766 349.68080043792725 C156.45949935913086 349.68080043792725 156.94350051879883 350.1648998260498 156.94350051879883 350.7456998825073 C156.94350051879883 351.32649993896484 156.45949935913086 351.8106002807617 155.84639930725098 351.8106002807617 Z "></path>
      <path id="s-Path_17-d1224" d="M155.84639930725098 361.168399810791 L145.4882001876831 361.168399810791 C144.9074001312256 361.168399810791 144.42339992523193 360.6844005584717 144.42339992523193 360.10359954833984 C144.42339992523193 359.5226993560791 144.9074001312256 359.03870010375977 145.4882001876831 359.03870010375977 L155.84639930725098 359.03870010375977 C156.4272003173828 359.03870010375977 156.9113006591797 359.5226993560791 156.9113006591797 360.10359954833984 C156.9113006591797 360.7166996002197 156.45949935913086 361.168399810791 155.84639930725098 361.168399810791 Z "></path>
    </defs>
    <g clip-path="url(#s-Path_18-d1224_clipping)">
      <g id="s-Group_4-d1224">
        <g style="mix-blend-mode:normal">
          <use xmlns:xlink="http://www.w3.org/1999/xlink" xlink:href="#s-Path_8-d1224" fill="#928D8D" fill-opacity="1.0"></use>
        </g>
        <g style="mix-blend-mode:normal">
          <use xmlns:xlink="http://www.w3.org/1999/xlink" xlink:href="#s-Path_9-d1224" fill="#928D8D" fill-opacity="1.0"></use>
        </g>
        <g style="mix-blend-mode:normal">
          <use xmlns:xlink="http://www.w3.org/1999/xlink" xlink:href="#s-Path_10-d1224" fill="#928D8D" fill-opacity="1.0"></use>
        </g>
        <g style="mix-blend-mode:normal">
          <use xmlns:xlink="http://www.w3.org/1999/xlink" xlink:href="#s-Path_11-d1224" fill="#928D8D" fill-opacity="1.0"></use>
        </g>
        <g style="mix-blend-mode:normal">
          <use xmlns:xlink="http://www.w3.org/1999/xlink" xlink:href="#s-Path_12-d1224" fill="#928D8D" fill-opacity="1.0"></use>
        </g>
        <g style="mix-blend-mode:normal">
          <use xmlns:xlink="http://www.w3.org/1999/xlink" xlink:href="#s-Path_13-d1224" fill="#928D8D" fill-opacity="1.0"></use>
        </g>
        <g style="mix-blend-mode:normal">
          <use xmlns:xlink="http://www.w3.org/1999/xlink" xlink:href="#s-Path_14-d1224" fill="#928D8D" fill-opacity="1.0"></use>
        </g>
        <g style="mix-blend-mode:normal">
          <use xmlns:xlink="http://www.w3.org/1999/xlink" xlink:href="#s-Path_15-d1224" fill="#928D8D" fill-opacity="1.0"></use>
        </g>
        <g style="mix-blend-mode:normal">
          <use xmlns:xlink="http://www.w3.org/1999/xlink" xlink:href="#s-Path_16-d1224" fill="#928D8D" fill-opacity="1.0"></use>
        </g>
        <g style="mix-blend-mode:normal">
          <use xmlns:xlink="http://www.w3.org/1999/xlink" xlink:href="#s-Path_17-d1224" fill="#928D8D" fill-opacity="1.0"></use>
        </g>
      </g>
    </g>
  </g>
</svg>
