<?xml version="1.0" encoding="UTF-8"?>
<svg xmlns="http://www.w3.org/2000/svg" width="47.0" height="101.0" viewBox="0.0 0.0 47.0 101.0" preserveAspectRatio="none">
  <g>
    <defs>
      <clipPath id="s-Path_31-d1224_clipping">
        <path d="M0.0 0.0 L47.0 0.0 L47.0 101.0 L0.0 101.0 Z " fill="black"></path>
      </clipPath>
      <path id="s-Path_24-d1224" d="M23.5 30.36949920654297 C18.42609977722168 30.36949920654297 14.28689956665039 26.225799560546875 14.28689956665039 21.146400451660156 L14.28689956665039 9.330069541931152 C14.28689956665039 8.715189933776855 14.794300079345703 8.207249641418457 15.408499717712402 8.207249641418457 C16.0226993560791 8.207249641418457 16.530099868774414 8.715189933776855 16.530099868774414 9.330069541931152 L16.530099868774414 21.146400451660156 C16.530099868774414 24.996000289916992 19.654499053955078 28.123899459838867 23.5 28.123899459838867 C27.345399856567383 28.123899459838867 30.469900131225586 24.996000289916992 30.469900131225586 21.146400451660156 L30.469900131225586 1.1228200197219849 C30.469900131225586 0.5079410076141357 30.9773006439209 0.0 31.59149932861328 0.0 C32.2056999206543 0.0 32.71310043334961 0.5079410076141357 32.71310043334961 1.1228200197219849 L32.71310043334961 21.146400451660156 C32.71310043334961 26.252500534057617 28.57390022277832 30.36949920654297 23.5 30.36949920654297 Z "></path>
      <path id="s-Path_25-d1224" d="M23.5 101.0 C16.209699630737305 101.0 10.281299591064453 95.06510162353516 10.281299591064453 87.76679992675781 L10.281299591064453 47.82659912109375 C10.281299591064453 44.217498779296875 8.919329643249512 40.8223991394043 6.462510108947754 38.22919845581055 C2.2164900302886963 33.73789978027344 -0.0801004022359848 27.85650062561035 1.3234799553174525E-5 21.654300689697266 C0.08012689650058746 16.922399520874023 1.5755800008773804 12.35099983215332 4.326149940490723 8.474559783935547 C7.02331018447876 4.678380012512207 10.708499908447266 1.7911299467086792 15.008000373840332 0.10690800100564957 C15.595499992370605 -0.10696099698543549 16.236400604248047 0.16037599742412567 16.450000762939453 0.7485179901123047 C16.663700103759766 1.3366600275039673 16.3966007232666 1.9782700538635254 15.809100151062012 2.1921401023864746 C7.690919876098633 5.346720218658447 2.3767199516296387 13.01930046081543 2.2432000637054443 21.680999755859375 C2.1630799770355225 27.29509925842285 4.246039867401123 32.6151008605957 8.091489791870117 36.6786003112793 C10.94890022277832 39.69960021972656 12.524399757385254 43.65610122680664 12.524399757385254 47.82659912109375 L12.524399757385254 87.76679992675781 C12.524399757385254 93.83529663085938 17.438100814819336 98.75430297851562 23.5 98.75430297851562 C25.529600143432617 98.75430297851562 27.505699157714844 98.19290161132812 29.241500854492188 97.12359619140625 C29.77560043334961 96.80280303955078 30.469900131225586 96.96320343017578 30.7903995513916 97.4979019165039 C31.11079978942871 98.03250122070312 30.950599670410156 98.72760009765625 30.416500091552734 99.04840087890625 C28.333499908447266 100.30500030517578 25.95680046081543 101.0 23.5 101.0 Z "></path>
      <path id="s-Path_26-d1224" d="M35.597198486328125 88.88960266113281 C34.983001708984375 88.88960266113281 34.47560119628906 88.38169860839844 34.47560119628906 87.76679992675781 L34.47560119628906 47.82659912109375 C34.47560119628906 43.682899475097656 36.07780075073242 39.69960021972656 38.98860168457031 36.5984001159668 C42.700599670410156 32.64179992675781 44.75680160522461 27.45549964904785 44.75680160522461 22.028600692749023 C44.75680160522461 13.313400268554688 39.30910110473633 5.319980144500732 31.190900802612305 2.1921401023864746 C30.6033992767334 1.9782700538635254 30.33639907836914 1.3099299669265747 30.549999237060547 0.7485179901123047 C30.763599395751953 0.16037599742412567 31.431299209594727 -0.10696099698543549 31.99209976196289 0.10690800100564957 C36.37160110473633 1.7911299467086792 40.083499908447266 4.731840133666992 42.78070068359375 8.608229637145996 C45.53129959106445 12.538100242614746 47.0 17.163000106811523 47.0 22.001800537109375 C47.0 28.01689910888672 44.730098724365234 33.73789978027344 40.61759948730469 38.09550094604492 C38.0806999206543 40.79560089111328 36.69200134277344 44.21760177612305 36.69200134277344 47.79990005493164 L36.69200134277344 87.74009704589844 C36.71879959106445 88.38169860839844 36.21139907836914 88.88960266113281 35.597198486328125 88.88960266113281 Z "></path>
      <path id="s-Path_27-d1224" d="M25.740999221801758 91.24800109863281 C26.98200035095215 90.00569915771484 26.98200035095215 87.99140167236328 25.740999221801758 86.7490005493164 C24.5 85.50669860839844 22.487899780273438 85.50669860839844 21.24690055847168 86.7490005493164 C20.00589942932129 87.99140167236328 20.00589942932129 90.00569915771484 21.24690055847168 91.24800109863281 C22.487899780273438 92.49040222167969 24.5 92.49040222167969 25.740999221801758 91.24800109863281 Z "></path>
      <path id="s-Path_28-d1224" d="M15.35509967803955 41.250099182128906 C15.16819953918457 41.250099182128906 14.981200218200684 41.19660186767578 14.794300079345703 41.089698791503906 C14.260199546813965 40.79560089111328 14.0733003616333 40.10060119628906 14.366999626159668 39.56589889526367 L17.972200393676758 33.22999954223633 C18.265899658203125 32.6953010559082 18.9601993560791 32.508201599121094 19.494300842285156 32.80229949951172 C20.028400421142578 33.09629821777344 20.215299606323242 33.79140090942383 19.921600341796875 34.32609939575195 L16.316499710083008 40.6619987487793 C16.129499435424805 41.03620147705078 15.75570011138916 41.250099182128906 15.35509967803955 41.250099182128906 Z "></path>
      <path id="s-Path_29-d1224" d="M21.684099197387695 41.250099182128906 C21.49720001220703 41.250099182128906 21.310199737548828 41.19660186767578 21.123300552368164 41.089698791503906 C20.58919906616211 40.79560089111328 20.402299880981445 40.10060119628906 20.695999145507812 39.56589889526367 L24.30109977722168 33.22999954223633 C24.594900131225586 32.6953010559082 25.289199829101562 32.508201599121094 25.823299407958984 32.80229949951172 C26.35740089416504 33.09629821777344 26.544300079345703 33.79140090942383 26.250600814819336 34.32609939575195 L22.64550018310547 40.6619987487793 C22.458499908447266 41.03620147705078 22.084699630737305 41.250099182128906 21.684099197387695 41.250099182128906 Z "></path>
      <path id="s-Path_30-d1224" d="M28.013099670410156 41.250099182128906 C27.826099395751953 41.250099182128906 27.63920021057129 41.19660186767578 27.452299118041992 41.089698791503906 C26.91819953918457 40.79560089111328 26.731300354003906 40.10060119628906 27.024999618530273 39.56589889526367 L30.63010025024414 33.22999954223633 C30.923900604248047 32.6953010559082 31.618200302124023 32.508201599121094 32.15230178833008 32.80229949951172 C32.6864013671875 33.09629821777344 32.87329864501953 33.79140090942383 32.579498291015625 34.32609939575195 L28.97439956665039 40.6619987487793 C28.787500381469727 41.03620147705078 28.41360092163086 41.250099182128906 28.013099670410156 41.250099182128906 Z "></path>
    </defs>
    <g clip-path="url(#s-Path_31-d1224_clipping)">
      <g id="s-Group_8-d1224">
        <g style="mix-blend-mode:normal">
          <use xmlns:xlink="http://www.w3.org/1999/xlink" xlink:href="#s-Path_24-d1224" fill="#928D8D" fill-opacity="1.0"></use>
        </g>
        <g style="mix-blend-mode:normal">
          <use xmlns:xlink="http://www.w3.org/1999/xlink" xlink:href="#s-Path_25-d1224" fill="#928D8D" fill-opacity="1.0"></use>
        </g>
        <g style="mix-blend-mode:normal">
          <use xmlns:xlink="http://www.w3.org/1999/xlink" xlink:href="#s-Path_26-d1224" fill="#928D8D" fill-opacity="1.0"></use>
        </g>
        <g style="mix-blend-mode:normal">
          <use xmlns:xlink="http://www.w3.org/1999/xlink" xlink:href="#s-Path_27-d1224" fill="#928D8D" fill-opacity="1.0"></use>
        </g>
        <g style="mix-blend-mode:normal">
          <use xmlns:xlink="http://www.w3.org/1999/xlink" xlink:href="#s-Path_28-d1224" fill="#928D8D" fill-opacity="1.0"></use>
        </g>
        <g style="mix-blend-mode:normal">
          <use xmlns:xlink="http://www.w3.org/1999/xlink" xlink:href="#s-Path_29-d1224" fill="#928D8D" fill-opacity="1.0"></use>
        </g>
        <g style="mix-blend-mode:normal">
          <use xmlns:xlink="http://www.w3.org/1999/xlink" xlink:href="#s-Path_30-d1224" fill="#928D8D" fill-opacity="1.0"></use>
        </g>
      </g>
    </g>
  </g>
</svg>
